<?xml version="1.0" encoding="UTF-8"?>
<svg version="1.1" xmlns="http://www.w3.org/2000/svg" width="1024" height="1024">
<path d="M0 0 C337.92 0 675.84 0 1024 0 C1024 337.92 1024 675.84 1024 1024 C686.08 1024 348.16 1024 0 1024 C0 686.08 0 348.16 0 0 Z " fill="#FDFDFD" transform="translate(0,0)"/>
<path d="M0 0 C169.62 0 339.24 0 514 0 C514 171.93 514 343.86 514 521 C344.05 521 174.1 521 -1 521 C-1 445 -1 445 0 444 C8.25 444 16.5 444 25 444 C25 460.83 25 477.66 25 495 C178.12 495 331.24 495 489 495 C489 339.9 489 184.8 489 25 C335.55 25 182.1 25 24 25 C24 63.28 24 101.56 24 141 C16.08 141 8.16 141 0 141 C0 94.47 0 47.94 0 0 Z " fill="#F40286" transform="translate(384,247)"/>
<path d="M0 0 C6.27 0 12.54 0 19 0 C19.33 16.83 19.66 33.66 20 51 C21.65 49.35 23.3 47.7 25 46 C35.84652821 37.26643183 47.18080765 35.87820776 60.72900391 36.75 C72.46596237 38.04204961 83.39578541 45.35231368 90.875 54.25 C98.17733443 64.34337091 100.19145782 74.52140344 100.25 86.625 C100.270625 87.66785156 100.29125 88.71070313 100.3125 89.78515625 C100.3799028 103.28256733 95.76271975 114.38774443 86.68359375 124.41015625 C76.95499438 133.59702387 64.91003284 137.34831233 51.73828125 137.1484375 C38.1535069 136.41203033 28.84916478 132.30198896 19 123 C18.67 127.29 18.34 131.58 18 136 C12.06 136 6.12 136 0 136 C0 91.12 0 46.24 0 0 Z " fill="#F60387" transform="translate(525,392)"/>
<path d="M0 0 C10.28259203 9.77888397 15.11697607 21.02109803 15.59008789 35.07104492 C15.79108449 50.2020129 12.41190612 63.08997995 1.79296875 74.3671875 C-2.98460127 78.86588247 -7.6466839 82.52510088 -13.8125 84.82421875 C-14.52792969 85.12070312 -15.24335937 85.4171875 -15.98046875 85.72265625 C-27.93356889 89.86538412 -44.56974372 89.89451803 -56.28125 85.08203125 C-71.29349363 77.62224352 -79.27605652 68.40184968 -84.98046875 52.5859375 C-88.47578928 36.78315033 -86.41742253 21.62651315 -77.9375 7.94921875 C-70.08794273 -2.94851685 -60.77570734 -9.26844461 -47.46484375 -11.7109375 C-30.03837903 -13.92885119 -14.02018405 -10.84617016 0 0 Z " fill="#F50386" transform="translate(723.8125,441.17578125)"/>
<path d="M0 0 C5.65087822 5.02160447 7.79370292 10.89459196 10 18 C10.495 19.485 10.495 19.485 11 21 C11.08952331 23.16213393 11.1175854 25.32698411 11.11352539 27.4909668 C11.11367142 28.1448941 11.11381744 28.79882141 11.1139679 29.4725647 C11.11327188 31.63148326 11.10549408 33.79031528 11.09765625 35.94921875 C11.09579096 37.44708713 11.09436758 38.94495611 11.09336853 40.44282532 C11.08955207 44.38345019 11.0797292 48.32403814 11.06866455 52.26464844 C11.05843172 56.28645325 11.0538669 60.30826404 11.04882812 64.33007812 C11.03810616 72.2200709 11.02051639 80.11002661 11 88 C6.71 88 2.42 88 -2 88 C-2 83.71 -2 79.42 -2 75 C-2.66 75 -3.32 75 -4 75 C-4.25652344 75.598125 -4.51304687 76.19625 -4.77734375 76.8125 C-6.12396695 79.2217939 -7.35866861 80.36159605 -9.5625 82 C-10.18253906 82.474375 -10.80257812 82.94875 -11.44140625 83.4375 C-19.51700651 88.36916428 -26.0361092 89.63600801 -35.5 89.5 C-36.57636719 89.51546875 -37.65273438 89.5309375 -38.76171875 89.546875 C-45.73600368 89.51289554 -50.90994022 88.40248465 -57 85 C-58.5778125 84.13375 -58.5778125 84.13375 -60.1875 83.25 C-64.80489576 79.55608339 -68.81726404 74.54778723 -71 69 C-71.83039159 59.65809457 -71.50097214 51.75019843 -65.4375 44.3125 C-58.31244788 36.77737293 -49.08698824 34.39399627 -38.9034729 33.89785767 C-33.20648673 33.75479689 -27.51029638 33.81716543 -21.8125 33.875 C-20.08008331 33.88505239 -18.34766096 33.89417424 -16.61523438 33.90234375 C-12.41001414 33.92417251 -8.205071 33.95857701 -4 34 C-4.12131139 31.76252072 -4.2536509 29.52563758 -4.390625 27.2890625 C-4.46313477 26.04334473 -4.53564453 24.79762695 -4.61035156 23.51416016 C-5.26110867 17.64511389 -7.17628963 13.82371037 -11.3125 9.6875 C-17.99348511 5.49246284 -23.2664924 4.44692261 -31.0625 4.5 C-32.44598633 4.50422974 -32.44598633 4.50422974 -33.85742188 4.50854492 C-42.94382918 4.72145812 -50.95006391 6.74836964 -58.6875 11.73046875 C-59.450625 12.14941406 -60.21375 12.56835938 -61 13 C-64.33571429 11.88809524 -64.58417079 11.53679327 -66.1875 8.625 C-66.53167969 8.01914062 -66.87585938 7.41328125 -67.23046875 6.7890625 C-68 5 -68 5 -68 2 C-47.34065105 -9.42915362 -20.06152318 -16.28795452 0 0 Z " fill="#070707" transform="translate(297,439)"/>
<path d="M0 0 C0.81926971 0.00359528 1.63853943 0.00719055 2.4826355 0.01089478 C3.34109573 0.01074875 4.19955597 0.01060272 5.08403015 0.01045227 C7.93559249 0.0111517 10.78709036 0.01894547 13.63864136 0.02676392 C15.61019353 0.02862799 17.58174615 0.03005194 19.55329895 0.03105164 C24.75324778 0.03487765 29.95316886 0.04470865 35.15310669 0.05575562 C40.45492172 0.06596794 45.75674121 0.07054887 51.05856323 0.07559204 C61.46938274 0.08633084 71.88018162 0.10340826 82.29098511 0.12442017 C82.29098511 4.74442017 82.29098511 9.36442017 82.29098511 14.12442017 C58.53098511 14.12442017 34.77098511 14.12442017 10.29098511 14.12442017 C10.29098511 28.97442017 10.29098511 43.82442017 10.29098511 59.12442017 C31.74098511 59.12442017 53.19098511 59.12442017 75.29098511 59.12442017 C75.29098511 63.41442017 75.29098511 67.70442017 75.29098511 72.12442017 C53.84098511 72.12442017 32.39098511 72.12442017 10.29098511 72.12442017 C10.29098511 87.30442017 10.29098511 102.48442017 10.29098511 118.12442017 C35.04098511 118.12442017 59.79098511 118.12442017 85.29098511 118.12442017 C85.29098511 122.41442017 85.29098511 126.70442017 85.29098511 131.12442017 C83.45980427 132.955601 80.90331466 132.25087276 78.46615601 132.25994873 C77.62975586 132.2579245 76.79335571 132.25590027 75.93161011 132.2538147 C74.61706848 132.25644318 74.61706848 132.25644318 73.27597046 132.25912476 C70.36428883 132.26354449 67.45266741 132.26060486 64.54098511 132.25723267 C62.52698759 132.25790567 60.51299016 132.25887567 58.49899292 132.26013184 C54.27209705 132.26160897 50.04522228 132.25945374 45.81832886 132.25479126 C40.38717978 132.24909397 34.95608012 132.25237289 29.52493286 132.25836372 C25.36438624 132.26196891 21.20385142 132.26083095 17.04330444 132.25823593 C15.04013056 132.25756654 13.03695561 132.25839549 11.03378296 132.26071548 C8.23927959 132.26324131 5.4448574 132.25940241 2.65036011 132.2538147 C1.81395996 132.25583893 0.97755981 132.25786316 0.11581421 132.25994873 C-5.59475247 132.23868259 -5.59475247 132.23868259 -6.70901489 131.12442017 C-6.80735824 129.44382016 -6.83533492 127.75906683 -6.83599854 126.07559204 C-6.83881836 124.98182251 -6.84163818 123.88805298 -6.84454346 122.76113892 C-6.84251923 121.55070923 -6.840495 120.34027954 -6.83840942 119.09317017 C-6.84016174 117.82666626 -6.84191406 116.56016235 -6.84371948 115.25527954 C-6.84829334 111.77190197 -6.84650446 108.28855389 -6.8433404 104.80517578 C-6.84081655 101.16744912 -6.8431544 97.52972505 -6.84472656 93.89199829 C-6.84654819 87.78196762 -6.84414214 81.67194901 -6.83938599 75.56192017 C-6.83394338 68.48814171 -6.83570604 61.41439207 -6.84121239 54.34061432 C-6.84574373 48.27778119 -6.84639397 42.21495677 -6.84377372 36.1521225 C-6.84221106 32.5264285 -6.84201688 28.90074807 -6.84531021 25.27505493 C-6.84872308 21.23524252 -6.84399886 17.19548014 -6.83840942 13.15567017 C-6.84043365 11.94524048 -6.84245789 10.73481079 -6.84454346 9.48770142 C-6.84172363 8.39393188 -6.83890381 7.30016235 -6.83599854 6.17324829 C-6.83562151 5.2168042 -6.83524448 4.26036011 -6.83485603 3.27493286 C-6.5782147 -1.11083835 -3.7244996 0.00690186 0 0 Z " fill="#0D0D0D" transform="translate(123.70901489257813,395.8755798339844)"/>
<path d="M0 0 C18.16469233 -2.6791224 18.16469233 -2.6791224 24.04248047 1.42675781 C27.67456666 5.33054778 30.16127074 9.94348729 32.66455078 14.62109375 C34.83969652 18.49579578 37.47264627 22.00535315 40.125 25.5625 C40.81855591 26.53521851 40.81855591 26.53521851 41.52612305 27.52758789 C42.63261883 29.05697756 43.80987882 30.53474328 45 32 C45.66 32 46.32 32 47 32 C48.36678799 30.48757918 48.36678799 30.48757918 49.72265625 28.484375 C50.25729492 27.73285156 50.79193359 26.98132813 51.34277344 26.20703125 C51.9102832 25.39621094 52.47779297 24.58539063 53.0625 23.75 C54.23474158 22.098294 55.40792274 20.44725443 56.58203125 18.796875 C57.16033691 17.98154297 57.73864258 17.16621094 58.33447266 16.32617188 C61.27444929 12.22003037 64.33229219 8.20574748 67.390625 4.1875 C69.01843343 2.10465043 69.01843343 2.10465043 70 0 C76.93 0 83.86 0 91 0 C90.11891348 3.52434609 89.69546811 4.73459104 87.62890625 7.43359375 C87.14212402 8.07570801 86.6553418 8.71782227 86.15380859 9.37939453 C85.62867676 10.05856934 85.10354492 10.73774414 84.5625 11.4375 C84.02189941 12.1476123 83.48129883 12.85772461 82.92431641 13.58935547 C79.99786163 17.42683581 77.04207571 21.24168243 74.08666992 25.05688477 C72.47302568 27.14522588 70.86989424 29.24154469 69.27050781 31.34082031 C68.3743665 32.51110785 67.47207927 33.67670166 66.56542969 34.83886719 C65.10879688 36.71277962 63.67764429 38.60394886 62.25 40.5 C61.56719971 41.36359131 61.56719971 41.36359131 60.87060547 42.24462891 C59.45480517 44.07095325 59.45480517 44.07095325 58 47 C58.77126633 51.13622671 61.29527545 53.80291745 64 56.9375 C67.86295708 61.54971107 71.43624833 66.29531454 74.89404297 71.2175293 C77.46258787 74.8652989 80.07950458 78.46992344 82.74609375 82.046875 C83.38780518 82.90861328 84.0295166 83.77035156 84.69067383 84.65820312 C85.96674791 86.36801033 87.2464601 88.07510914 88.5300293 89.77929688 C89.11051025 90.55853516 89.69099121 91.33777344 90.2890625 92.140625 C90.81193848 92.83704102 91.33481445 93.53345703 91.87353516 94.25097656 C93 96 93 96 93 98 C75.83058408 100.50930193 75.83058408 100.50930193 70.02099609 96.70361328 C66.4246393 93.10093044 63.90475385 88.7716656 61.39013672 84.37548828 C58.98403617 80.26390445 56.22952683 76.40068765 53.5 72.5 C52.76027954 71.37863647 52.76027954 71.37863647 52.00561523 70.23461914 C51.53969971 69.54875732 51.07378418 68.86289551 50.59375 68.15625 C50.18833984 67.54587891 49.78292969 66.93550781 49.36523438 66.30664062 C47.83333265 64.53904413 47.83333265 64.53904413 44 65 C42.21733292 67.07674652 40.74712105 69.04340761 39.25 71.3125 C38.36507726 72.60320337 37.47965452 73.89356405 36.59375 75.18359375 C36.15675781 75.82925293 35.71976563 76.47491211 35.26953125 77.14013672 C33.48282265 79.75766482 31.62076196 82.31709279 29.75 84.875 C29.16734375 85.67679688 28.5846875 86.47859375 27.984375 87.3046875 C27.00210938 88.63886719 27.00210938 88.63886719 26 90 C25.6086084 90.68674805 25.2172168 91.37349609 24.81396484 92.08105469 C21.36642962 97.64286498 21.36642962 97.64286498 17.55078125 98.64013672 C14.70228161 98.78734995 11.96983104 98.7004488 9.125 98.5 C8.15046875 98.46390625 7.1759375 98.4278125 6.171875 98.390625 C3.77715421 98.29671438 1.39065291 98.16561944 -1 98 C-0.13823344 93.88151283 1.68028642 91.55810894 4.3125 88.25 C5.22755533 87.08671779 6.14157252 85.92261841 7.0546875 84.7578125 C7.77736816 83.83983887 7.77736816 83.83983887 8.51464844 82.90332031 C12.06589529 78.35277454 15.50046659 73.71327406 18.9453125 69.08203125 C21.0127905 66.30381598 23.11479424 63.55678559 25.2421875 60.82421875 C26.26575215 59.48707649 27.28919428 58.14984043 28.3125 56.8125 C28.79904053 56.20100098 29.28558105 55.58950195 29.78686523 54.95947266 C32.39519151 51.61768024 32.39519151 51.61768024 32.78466797 47.5480957 C31.9650232 44.88641789 31.00822107 43.23329718 29.33203125 41.0234375 C28.77499512 40.27916504 28.21795898 39.53489258 27.64404297 38.76806641 C27.03963379 37.97835449 26.43522461 37.18864258 25.8125 36.375 C24.5400734 34.68251054 23.26794702 32.98979534 21.99609375 31.296875 C21.33851074 30.42740234 20.68092773 29.55792969 20.00341797 28.66210938 C16.75469774 24.34526252 13.56828094 19.98291934 10.375 15.625 C6.09555448 9.77275371 6.09555448 9.77275371 1.6015625 4.0859375 C0 2 0 2 0 0 Z " fill="#F70488" transform="translate(745,430)"/>
<path d="M0 0 C5.28 0 10.56 0 16 0 C16.69996094 1.70027344 17.39992188 3.40054687 18.12109375 5.15234375 C20.97995983 12.01181483 24.00531427 18.78957216 27.0625 25.5625 C28.21053791 28.11027131 29.35746063 30.65854308 30.50390625 33.20703125 C30.79339142 33.85026337 31.08287659 34.49349548 31.38113403 35.15621948 C33.3874081 39.62016706 35.36990038 44.0941336 37.33984375 48.57421875 C37.87150146 49.78070068 38.40315918 50.98718262 38.95092773 52.23022461 C39.95518404 54.51207853 40.95620111 56.79536188 41.95336914 59.08032227 C44.67154533 65.24645363 47.59480071 71.18309231 51 77 C51.2993042 76.27369385 51.5986084 75.5473877 51.90698242 74.79907227 C54.94345907 67.4662604 58.09403476 60.1919735 61.3125 52.9375 C66.50843827 41.17776332 71.5322243 29.35418691 76.4609375 17.48046875 C78.89545938 11.61548422 81.39401654 5.79107436 84 0 C88.95 0 93.9 0 99 0 C95.91139391 8.60963089 92.64400405 17.02332411 88.68188477 25.27050781 C86.08753822 30.70573864 83.78909808 36.2404719 81.57250977 41.83959961 C79.71193065 46.47882545 77.57325928 50.9173062 75.31152344 55.3737793 C73.07003381 59.86218286 71.00775335 64.43072367 68.9375 69 C68.51662109 69.92039062 68.09574219 70.84078125 67.66210938 71.7890625 C64.48832131 78.77631685 61.6125155 85.85276114 58.83203125 93.00390625 C48.30689669 119.41755811 48.30689669 119.41755811 39 126 C38.03320312 126.74830078 38.03320312 126.74830078 37.046875 127.51171875 C28.92182199 132.69641167 18.26361371 132.3619581 9 131 C3.84375613 129.62491971 -1.19477353 127.40696863 -4.453125 123.0625 C-5 121 -5 121 -4.1015625 118.859375 C-3.61429687 118.16328125 -3.12703125 117.4671875 -2.625 116.75 C-2.14289063 116.04359375 -1.66078125 115.3371875 -1.1640625 114.609375 C-0.58785156 113.81273437 -0.58785156 113.81273437 0 113 C2.79165038 114.09974106 5.4904604 115.24042177 8.1875 116.5625 C13.91261591 119.00721181 19.72774157 119.40975152 25.8125 118.3125 C32.54252122 115.54131479 35.29886089 111.40401055 38.375 105.125 C38.92607422 104.08279297 38.92607422 104.08279297 39.48828125 103.01953125 C39.82988281 102.33503906 40.17148437 101.65054688 40.5234375 100.9453125 C40.83200684 100.33187988 41.14057617 99.71844727 41.45849609 99.08642578 C42.75940037 94.07401464 40.54990906 89.57976398 38.40234375 85.1171875 C37.85586182 83.96742432 37.30937988 82.81766113 36.74633789 81.63305664 C36.45228058 81.02237335 36.15822327 80.41169006 35.85525513 79.78250122 C34.25840511 76.46354036 32.68779979 73.13222024 31.1171875 69.80078125 C30.78463455 69.09624313 30.4520816 68.39170502 30.10945129 67.66581726 C25.43367355 57.72084937 21.02666963 47.65472637 16.59545898 37.59912109 C9.3887115 21.24786674 9.3887115 21.24786674 1.5625 5.1875 C0 2 0 2 0 0 Z " fill="#070606" transform="translate(411,432)"/>
<path d="M0 0 C0.77085937 0.05800781 1.54171875 0.11601562 2.3359375 0.17578125 C10.60903694 1.25885263 17.42985685 5.69009745 22.734375 12.09375 C27.04424273 18.68531242 28.36949308 24.98102902 28.3125 32.75 C28.30404053 33.94761963 28.30404053 33.94761963 28.29541016 35.16943359 C28.07365279 45.96528498 25.32819541 53.90970668 17.44140625 61.5 C10.61903473 66.99716267 1.5626786 68.7018589 -7 68 C-15.47017248 66.80186165 -22.32579651 62.68834956 -27.68359375 56.03125 C-33.67538908 46.78574979 -35.13357255 36.63720488 -33.5390625 25.89453125 C-31.46271449 16.25783373 -27.21460366 9.90073246 -19.13671875 4.25390625 C-13.0904054 0.70570408 -7.00010337 -0.69476681 0 0 Z " fill="#FDFBFD" transform="translate(691,445)"/>
<path d="M0 0 C8.14514025 4.91755917 14.16446454 11.76337288 16.625 21.0625 C18.84698805 33.06938956 17.49363536 42.93381562 10.87109375 53.2890625 C5.7980499 59.8167864 -1.61054432 63.27474986 -9.625 64.9375 C-17.95124332 65.69443121 -26.63288506 63.99869257 -33.35546875 58.84375 C-42.28908116 50.0995943 -44.80013851 41.64758086 -45 29.4375 C-44.9992791 22.78138505 -44.21971953 17.67643819 -40.625 11.9375 C-40.109375 10.90625 -39.59375 9.875 -39.0625 8.8125 C-29.85952106 -2.04229568 -13.09328449 -6.1722593 0 0 Z " fill="#FDFBFC" transform="translate(588.625,448.0625)"/>
<path d="M0 0 C1.2375 0.6496875 1.2375 0.6496875 2.5 1.3125 C1.2874262 5.03683382 -0.00859979 8.69052806 -1.5 12.3125 C-6.76301731 11.35919875 -11.81080086 9.78004084 -16.9296875 8.25 C-27.44118826 5.48986851 -38.39070009 4.85786245 -48.5 9.3125 C-51.79388912 11.10596424 -51.79388912 11.10596424 -53.5 14.3125 C-54.45478694 19.59565439 -54.52107528 23.78088708 -51.5 28.3125 C-43.29442744 33.78288171 -32.93731272 35.31751142 -23.49804688 37.61914062 C-12.70445352 40.32809726 -0.91532631 43.55153159 5.5 53.375 C7.7682166 60.04622529 7.81099971 68.43642551 4.75 74.8125 C4.03313198 75.99981266 3.28562746 77.16952117 2.5 78.3125 C1.9225 79.199375 1.345 80.08625 0.75 81 C-7.272437 89.24528247 -17.24121885 91.67043272 -28.43603516 91.83154297 C-29.63276855 91.82525879 -30.82950195 91.81897461 -32.0625 91.8125 C-33.92334229 91.80500732 -33.92334229 91.80500732 -35.82177734 91.79736328 C-49.92721928 91.53011004 -60.69408353 88.24460013 -72.5 80.3125 C-70.85 77.0125 -69.2 73.7125 -67.5 70.3125 C-63.40420368 70.3125 -61.94010045 70.86323754 -58.375 72.625 C-45.86939202 78.40186878 -33.35791585 80.59912997 -19.7109375 77.43359375 C-15.24203317 75.7862969 -11.42307775 74.31993176 -9.25 69.875 C-8.19974663 65.10769109 -8.19974663 65.10769109 -8.5 60.3125 C-13.47990124 53.62075771 -21.21220009 52.30420333 -28.9296875 50.48046875 C-29.94872162 50.23910942 -29.94872162 50.23910942 -30.98834229 49.99287415 C-33.82767973 49.3243133 -36.66749837 48.65938579 -39.51318359 48.01831055 C-49.6010981 45.73235061 -59.99778793 43.36324463 -66.5625 34.6875 C-70.32160082 28.13938889 -70.51653102 20.98991638 -68.921875 13.65234375 C-66.58220584 6.77158945 -62.54948014 2.27532134 -56.5 -1.6875 C-52.90775156 -3.34214047 -49.29434375 -4.58651829 -45.5 -5.6875 C-31.49568753 -10.35560416 -12.82984435 -6.18581781 0 0 Z " fill="#070707" transform="translate(400.5,436.6875)"/>
<path d="M0 0 C5.82098917 3.99308977 9.54780406 9.05747467 11.77734375 15.74609375 C12.63675944 24.4998564 12.04905473 31.52828386 6.77734375 38.74609375 C0.52764722 45.95538936 -5.77342682 49.07127372 -15.171875 50.0546875 C-25.39877687 50.48681011 -32.80220531 47.52619213 -40.43359375 40.8203125 C-45.33236488 35.14073287 -46.91342643 30.66146841 -46.72265625 23.30859375 C-46.70912109 22.55723145 -46.69558594 21.80586914 -46.68164062 21.03173828 C-46.38374389 13.0768563 -44.32596458 8.53886982 -38.59765625 2.99609375 C-27.37851242 -6.04959971 -12.60018249 -7.10836306 0 0 Z " fill="#FAFAFA" transform="translate(246.22265625,598.25390625)"/>
<path d="M0 0 C1.25244003 0.00424484 1.25244003 0.00424484 2.53018188 0.00857544 C5.17912541 0.01970949 7.82772234 0.04480123 10.4765625 0.0703125 C12.27994301 0.08035107 14.08332886 0.08947538 15.88671875 0.09765625 C20.29179883 0.1196266 24.69662203 0.15410929 29.1015625 0.1953125 C29.17791703 2.74536513 29.23347269 5.29310026 29.27734375 7.84375 C29.31269226 8.91774048 29.31269226 8.91774048 29.34875488 10.01342773 C29.42360528 15.82514527 28.14544875 19.57828185 24.37109375 24.13671875 C15.68644732 32.01418634 6.8921741 33.50893686 -4.4453125 33.4140625 C-10.93455806 33.00297907 -16.28796945 30.93750821 -20.8984375 26.1953125 C-23.82820251 21.31237082 -24.51101203 17.29363351 -23.734375 11.6328125 C-22.20154252 7.1632449 -18.86635966 4.5666344 -14.8984375 2.1953125 C-9.81411075 0.08559752 -5.40315694 -0.06969754 0 0 Z " fill="#FBFBFB" transform="translate(263.8984375,483.8046875)"/>
<path d="M0 0 C5.82098917 3.99308977 9.54780406 9.05747467 11.77734375 15.74609375 C12.63675944 24.4998564 12.04905473 31.52828386 6.77734375 38.74609375 C0.52764722 45.95538936 -5.77342682 49.07127372 -15.171875 50.0546875 C-25.39877687 50.48681011 -32.80220531 47.52619213 -40.43359375 40.8203125 C-45.33236488 35.14073287 -46.91342643 30.66146841 -46.72265625 23.30859375 C-46.70912109 22.55723145 -46.69558594 21.80586914 -46.68164062 21.03173828 C-46.38374389 13.0768563 -44.32596458 8.53886982 -38.59765625 2.99609375 C-27.37851242 -6.04959971 -12.60018249 -7.10836306 0 0 Z M-38.8125 9.74609375 C-42.63971822 15.17417057 -43.14182011 21.29299492 -42.22265625 27.74609375 C-39.75255001 35.05039932 -36.26326079 40.01484107 -29.44921875 43.70703125 C-22.91294207 46.6150074 -15.86830189 46.58739659 -8.97265625 44.99609375 C-8.06515625 44.58359375 -7.15765625 44.17109375 -6.22265625 43.74609375 C-4.49015625 42.97265625 -4.49015625 42.97265625 -2.72265625 42.18359375 C1.90026567 39.3315907 4.83000623 35.82699905 6.77734375 30.74609375 C7.76545305 23.76580733 8.29267705 16.28147639 4.58984375 9.99609375 C0.02211024 4.20690504 -5.03542279 1.21309148 -12.22265625 -0.25390625 C-23.99909833 -1.45028898 -31.32267374 0.46485119 -38.8125 9.74609375 Z " fill="#151515" transform="translate(246.22265625,598.25390625)"/>
<path d="M0 0 C1.80078125 1.63671875 1.80078125 1.63671875 3 3 C2.67 3.99 2.34 4.98 2 6 C1.071875 5.5978125 1.071875 5.5978125 0.125 5.1875 C-9.59247062 1.49486116 -19.09282406 -1.38160051 -29.1171875 2.9609375 C-33.84767127 5.57153642 -37.12885508 8.5668261 -39.9375 13.1875 C-41.94801635 20.40170573 -42.0207342 26.57572464 -38.8125 33.4375 C-35.34124907 39.54844871 -31.32542207 42.43136212 -24.66796875 44.4609375 C-17.18958541 45.97194321 -9.56594425 46.25899087 -3 42 C-2.34 42 -1.68 42 -1 42 C-1 36.06 -1 30.12 -1 24 C0.65 24 2.3 24 4 24 C4 30.6 4 37.2 4 44 C-6.14212484 49.27390491 -15.23451438 52.03791402 -26.7890625 49.3515625 C-34.25811451 46.6460545 -40.64123523 42.13240468 -44.5 35.0625 C-47.19202634 28.08005667 -47.30558678 18.88779049 -45.375 11.66015625 C-41.96134722 4.93952733 -34.50217592 -0.59460752 -27.609375 -3.33984375 C-18.24467754 -5.70905613 -8.51789495 -4.50770016 0 0 Z " fill="#131313" transform="translate(351,598)"/>
<path d="M0 0 C1.57421875 1.046875 1.57421875 1.046875 2.3046875 3.15625 C2.39363281 3.78015625 2.48257813 4.4040625 2.57421875 5.046875 C-0.75247166 4.58113834 -4.06358803 4.11623115 -7.36328125 3.484375 C-14.39364513 2.4800373 -21.05113329 2.50675683 -27.36328125 6.171875 C-29.09521886 9.22823549 -29.12741998 12.6349847 -28.42578125 16.046875 C-26.43529227 18.63573183 -24.50538609 19.59582057 -21.42578125 20.546875 C-20.63300781 20.79566406 -19.84023438 21.04445313 -19.0234375 21.30078125 C-16.31476822 22.07875995 -13.59248381 22.78214625 -10.86328125 23.484375 C-4.95438118 25.06726408 1.67447246 27.0312721 5.57421875 32.046875 C6.45941754 35.82854056 6.40393521 39.25766034 5.57421875 43.046875 C2.18375878 47.77677594 -2.69104862 51.05432512 -8.42578125 52.046875 C-18.13621445 52.80903109 -27.27286926 51.75391339 -35.42578125 46.046875 C-35.09578125 44.726875 -34.76578125 43.406875 -34.42578125 42.046875 C-33.84957031 42.34335937 -33.27335937 42.63984375 -32.6796875 42.9453125 C-22.87006906 47.73961475 -13.5955669 48.54794098 -3.203125 44.99609375 C-1.08199535 44.04320573 -1.08199535 44.04320573 0.57421875 41.046875 C1.15803835 38.1319495 1.15803835 38.1319495 0.57421875 35.046875 C-3.57416727 29.44094794 -8.31830459 28.76233937 -14.80078125 27.546875 C-21.90639766 26.2033761 -26.85606539 24.79117236 -32.42578125 20.046875 C-34.78068693 16.15616126 -34.8260336 12.52970133 -34.42578125 8.046875 C-32.41499563 2.96077019 -29.12474001 1.39635438 -24.42578125 -0.953125 C-16.71699256 -3.52272123 -7.6135594 -2.53316209 0 0 Z " fill="#1B1B1B" transform="translate(500.42578125,595.953125)"/>
<path d="M0 0 C0 1.32 0 2.64 0 4 C-0.70125 3.855625 -1.4025 3.71125 -2.125 3.5625 C-10.79949404 1.86531638 -19.50873062 0.70566935 -28 4 C-29.97944936 6.96917403 -30.29350581 7.65702279 -30.3125 11 C-30.32925781 11.680625 -30.34601562 12.36125 -30.36328125 13.0625 C-29.87938542 15.64327777 -29.02428824 16.34066233 -27 18 C-24.50747459 18.98286129 -24.50747459 18.98286129 -21.66796875 19.68359375 C-20.09885742 20.11575195 -20.09885742 20.11575195 -18.49804688 20.55664062 C-16.3029301 21.14071004 -14.10761948 21.72405148 -11.91210938 22.30664062 C1.16301623 25.9105273 1.16301623 25.9105273 4.375 31.3125 C5.18362211 34.78957507 5.43770221 37.43585341 5 41 C1.57793105 46.23375252 -2.21000579 49.08628323 -8.30078125 50.5546875 C-18.95141362 52.31181064 -27.99657838 51.00228108 -37 45 C-36.67 44.01 -36.34 43.02 -36 42 C-32.9471893 42.46254708 -30.76365976 43.12309388 -28 44.5625 C-21.43140966 47.48027645 -12.98594208 47.01185155 -6.3125 44.625 C-3.01160367 43.22720732 -3.01160367 43.22720732 -1 41 C-0.3222103 35.83292868 -0.3222103 35.83292868 -2.27734375 31.33984375 C-7.08540607 27.60023972 -13.87375565 26.79169166 -19.6875 25.5625 C-26.1183593 24.12925131 -30.65292107 22.09574252 -35 17 C-36.22450919 12.86146895 -36.49752071 9.17833851 -34.8125 5.1875 C-25.72850866 -5.77593782 -12.56543353 -4.76522084 0 0 Z " fill="#1C1C1C" transform="translate(830,597)"/>
<path d="M0 0 C3 2.1875 3 2.1875 5 4 C4.67 4.99 4.34 5.98 4 7 C3.484375 6.731875 2.96875 6.46375 2.4375 6.1875 C1.633125 5.795625 0.82875 5.40375 0 5 C-0.969375 4.46375 -1.93875 3.9275 -2.9375 3.375 C-10.11617549 0.34914968 -19.72678336 0.99157885 -26.92578125 3.74609375 C-31.86981469 6.73485973 -36.17211158 11.51633474 -38 17 C-38.67964875 24.52070333 -38.48437866 30.73934148 -34 37 C-28.94716546 42.83019369 -24.15263762 45.61949814 -16.546875 46.31640625 C-15.29390625 46.39761719 -14.0409375 46.47882812 -12.75 46.5625 C-11.48671875 46.64628906 -10.2234375 46.73007812 -8.921875 46.81640625 C-7.47554687 46.90728516 -7.47554687 46.90728516 -6 47 C-6 46.34 -6 45.68 -6 45 C-4.73581754 44.30034557 -3.46334598 43.61565237 -2.1875 42.9375 C-1.47980469 42.55464844 -0.77210938 42.17179688 -0.04296875 41.77734375 C2 41 2 41 5 42 C3.62721909 45.37534275 2.4223063 46.6632735 -0.875 48.1875 C-1.89207031 48.67283203 -1.89207031 48.67283203 -2.9296875 49.16796875 C-10.30656904 52.13264001 -18.79396131 52.1382942 -26.25 49.4375 C-34.04580821 45.85293224 -39.13835458 41.11706893 -42.30859375 33.11328125 C-44.84263585 25.36798872 -44.59688794 18.37108726 -41 11 C-31.53371646 -2.53009213 -15.11840051 -7.69664026 0 0 Z " fill="#161616" transform="translate(741,597)"/>
<path d="M0 0 C1.65 0 3.3 0 5 0 C5 16.5 5 33 5 50 C15.56 50 26.12 50 37 50 C37 51.32 37 52.64 37 54 C24.79 54 12.58 54 0 54 C0 36.18 0 18.36 0 0 Z " fill="#272727" transform="translate(120,594)"/>
<path d="M0 0 C15.18 0 30.36 0 46 0 C46 0.99 46 1.98 46 3 C39.4 3 32.8 3 26 3 C26 19.17 26 35.34 26 52 C24.68 52 23.36 52 22 52 C22 35.83 22 19.66 22 3 C14.74 3 7.48 3 0 3 C0 2.01 0 1.02 0 0 Z " fill="#0A0A0A" transform="translate(547,595)"/>
<path d="M0 0 C1.65 0 3.3 0 5 0 C5 17.82 5 35.64 5 54 C3.35 54 1.7 54 0 54 C0 36.18 0 18.36 0 0 Z " fill="#212121" transform="translate(409,594)"/>
<path d="M0 0 C1.65 0 3.3 0 5 0 C5 17.82 5 35.64 5 54 C3.35 53.67 1.7 53.34 0 53 C0 35.51 0 18.02 0 0 Z " fill="#1A1B1A" transform="translate(642,594)"/>
<path d="M0 0 C1.65 0 3.3 0 5 0 C5 6.6 5 13.2 5 20 C-2.56644384 23.9345508 -7.85519645 26.1369564 -16.4375 26.1875 C-17.52933594 26.20167969 -18.62117188 26.21585938 -19.74609375 26.23046875 C-23.13335377 25.99055478 -25.83858571 25.20639188 -29 24 C-26.5546192 21.08562242 -26.5546192 21.08562242 -24.10229492 20.70703125 C-23.40209229 20.74183594 -22.70188965 20.77664063 -21.98046875 20.8125 C-21.20509766 20.83570313 -20.42972656 20.85890625 -19.63085938 20.8828125 C-18.01364488 20.96037674 -16.39645679 21.03849359 -14.77929688 21.1171875 C-9.64574498 21.27004761 -6.54568908 20.67311578 -2 18 C-1.34 18 -0.68 18 0 18 C0 12.06 0 6.12 0 0 Z " fill="#212121" transform="translate(350,622)"/>
<path d="M0 0 C7.04454747 0.15314234 11.79823582 3.39674675 17 8 C21.54413296 13.66205178 23.1344836 18.41715632 23.0625 25.6875 C23.05347656 26.86699219 23.04445313 28.04648437 23.03515625 29.26171875 C23.02355469 30.16535156 23.01195312 31.06898438 23 32 C20.525 32.495 20.525 32.495 18 33 C17.98582031 32.01 17.97164062 31.02 17.95703125 30 C17.68194707 19.04595232 17.68194707 19.04595232 12 10 C8.10826604 6.99728685 3.69060825 5.37286095 -1 4 C-0.67 2.68 -0.34 1.36 0 0 Z " fill="#1D1D1D" transform="translate(235,595)"/>
<path d="M0 0 C3.02896964 0.45893479 5.2897209 1.14190411 8.0625 2.5 C13.08344016 4.78731718 18.56569557 4.7412236 24 5 C24.33 6.32 24.66 7.64 25 9 C14.98986435 9.56483524 7.42716887 8.61811258 -1 3 C-0.67 2.01 -0.34 1.02 0 0 Z " fill="#1F2020" transform="translate(794,639)"/>
<path d="M0 0 C0.58136719 0.29648437 1.16273438 0.59296875 1.76171875 0.8984375 C10.49295984 5.19548809 18.40280405 5.34140223 28 5 C27.67 5.66 27.34 6.32 27 7 C24.93359375 7.4140625 24.93359375 7.4140625 22.4375 7.625 C21.61121094 7.69976563 20.78492188 7.77453125 19.93359375 7.8515625 C18.97646484 7.92503906 18.97646484 7.92503906 18 8 C20.64 8.33 23.28 8.66 26 9 C26 9.33 26 9.66 26 10 C16.16726724 10.45615771 7.28994807 9.80296365 -1 4 C-0.67 2.68 -0.34 1.36 0 0 Z " fill="#242525" transform="translate(466,638)"/>
<path d="M0 0 C3.96 0 7.92 0 12 0 C12 0.66 12 1.32 12 2 C12.66 1.67 13.32 1.34 14 1 C18.05142119 0.74139865 19.54337669 0.69558446 23 3 C23 3.99 23 4.98 23 6 C21.49373047 5.7834375 21.49373047 5.7834375 19.95703125 5.5625 C17.41379571 5.20097392 14.86958119 4.84623421 12.32421875 4.5 C11.12410156 4.335 9.92398437 4.17 8.6875 4 C6.86798828 3.7525 6.86798828 3.7525 5.01171875 3.5 C2 3 2 3 0 2 C0 1.34 0 0.68 0 0 Z " fill="#050505" transform="translate(480,595)"/>
<path d="M0 0 C0.33 1.32 0.66 2.64 1 4 C4.3 4 7.6 4 11 4 C11 4.33 11 4.66 11 5 C8.95863605 5.05451714 6.91684144 5.09302485 4.875 5.125 C3.16957031 5.15980469 3.16957031 5.15980469 1.4296875 5.1953125 C-2.05757767 4.99672109 -4.7553862 4.2524801 -8 3 C-5.53387212 -0.1151089 -3.89156016 -0.31553191 0 0 Z " fill="#383838" transform="translate(329,643)"/>
<path d="M0 0 C-1.450954 3.82524236 -3.38181932 5.19090966 -7 7 C-7.66 7 -8.32 7 -9 7 C-9 6.34 -9 5.68 -9 5 C-9.66 4.34 -10.32 3.68 -11 3 C-9.73581754 2.30034557 -8.46334598 1.61565237 -7.1875 0.9375 C-6.47980469 0.55464844 -5.77210938 0.17179688 -5.04296875 -0.22265625 C-3 -1 -3 -1 0 0 Z " fill="#272727" transform="translate(746,639)"/>
<path d="M0 0 C2.2481625 1.26819423 3.76114448 2.43395677 5.4375 4.375 C5.1075 5.365 4.7775 6.355 4.4375 7.375 C3.921875 7.106875 3.40625 6.83875 2.875 6.5625 C-0.22651415 5.05150593 -3.38512806 3.71927274 -6.5625 2.375 C-3.26833832 -0.79715569 -3.26833832 -0.79715569 0 0 Z " fill="#1D1D1D" transform="translate(740.5625,596.625)"/>
<path d="M0 0 C1.32 0 2.64 0 4 0 C4 2.97 4 5.94 4 9 C3.01 9.495 3.01 9.495 2 10 C-0.09350689 6.5980513 -0.17942163 3.94727588 0 0 Z " fill="#131313" transform="translate(502,630)"/>
<path d="M0 0 C2.475 0.99 2.475 0.99 5 2 C5 2.99 5 3.98 5 5 C0.65535464 4.39174965 -3.67551867 3.73832608 -8 3 C-8 2.67 -8 2.34 -8 2 C-6.865625 1.855625 -5.73125 1.71125 -4.5625 1.5625 C-1.19222799 1.38828522 -1.19222799 1.38828522 0 0 Z " fill="#2D2D2D" transform="translate(498,596)"/>
<path d="M0 0 C2.97 0 5.94 0 9 0 C9.33 0.99 9.66 1.98 10 3 C6.7 3 3.4 3 0 3 C0 2.01 0 1.02 0 0 Z " fill="#030303" transform="translate(330,644)"/>
<path d="M0 0 C7.26 0 14.52 0 22 0 C22 0.33 22 0.66 22 1 C18.89590179 1.16795811 15.79171114 1.33414323 12.6875 1.5 C11.80642578 1.54769531 10.92535156 1.59539062 10.01757812 1.64453125 C8.74624023 1.71220703 8.74624023 1.71220703 7.44921875 1.78125 C6.66893311 1.82314453 5.88864746 1.86503906 5.0847168 1.90820312 C3.39117604 1.98277524 1.69518179 2 0 2 C0 1.34 0 0.68 0 0 Z " fill="#FC22A0" transform="translate(745,430)"/>
<path d="M0 0 C0.66 0 1.32 0 2 0 C1.34 3.3 0.68 6.6 0 10 C-2 7 -2 7 -1.6875 3.875 C-1 1 -1 1 0 0 Z " fill="#F7248F" transform="translate(658,464)"/>
<path d="M0 0 C0.66 0.33 1.32 0.66 2 1 C-0.64 3.64 -3.28 6.28 -6 9 C-6 6 -6 6 -3.5625 3.375 C-2.716875 2.59125 -1.87125 1.8075 -1 1 C-0.67 0.67 -0.34 0.34 0 0 Z " fill="#FDDAF2" transform="translate(556,451)"/>
</svg>
